<?xml version="1.0" encoding="utf-8"?>
<!-- Generator: Adobe Illustrator 23.0.3, SVG Export Plug-In . SVG Version: 6.00 Build 0)  -->
<svg version="1.1" id="Blocked" xmlns="http://www.w3.org/2000/svg" xmlns:xlink="http://www.w3.org/1999/xlink" x="0px" y="0px"
	 viewBox="0 0 512 512" xml:space="preserve">
<style type="text/css">
	.st1{fill:#ededed;}
</style>
<path class="st1" d="M256,101.37c-85.26,0-154.63,69.37-154.63,154.63S170.74,410.63,256,410.63S410.63,341.26,410.63,256
	S341.26,101.37,256,101.37z M142.37,256c0-62.65,50.97-113.63,113.63-113.63c27.56,0,52.85,9.86,72.54,26.24L162.68,320.74
	C149.89,302.36,142.37,280.04,142.37,256z M256,369.63c-23.82,0-45.94-7.37-64.22-19.94l163.11-149.6
	c9.38,16.52,14.74,35.6,14.74,55.92C369.63,318.65,318.65,369.63,256,369.63z"/>
</svg>
