<?xml version="1.0" encoding="utf-8"?>
<!-- Generator: Adobe Illustrator 26.0.2, SVG Export Plug-In . SVG Version: 6.00 Build 0)  -->
<svg version="1.1" id="Layer_3" xmlns="http://www.w3.org/2000/svg" xmlns:xlink="http://www.w3.org/1999/xlink" x="0px" y="0px"
	 viewBox="0 0 64 64" style="enable-background:new 0 0 64 64;" xml:space="preserve">
<g>
	<rect class="st1" x="15" y="12" width="18" height="2"/>
	<rect class="st1" x="15" y="24" width="30" height="2"/>
	<rect class="st1" x="15" y="28" width="30" height="2"/>
	<rect class="st1" x="15" y="32" width="30" height="2"/>
	<rect class="st1" x="15" y="36" width="26" height="2"/>
	<rect class="st1" x="43" y="36" width="2" height="2"/>
<style type="text/css">
	.st1{fill:#ededed;}
</style>
	<path class="st1" d="M63,13c0-6.617-5.383-12-12-12c-3.542,0-6.72,1.552-8.919,4H10C9.448,5,9,5.448,9,6v17.035l-7.731,8.283
		C1.096,31.503,1,31.747,1,32v30c0,0.552,0.448,1,1,1h56c0.552,0,1-0.448,1-1V32c0-0.253-0.096-0.497-0.269-0.682l-6.023-6.454
		C58.516,24.031,63,19.036,63,13z M40.624,7C39.598,8.768,39,10.813,39,13c0,1.037,0.146,2.039,0.395,3H15v2h25.105
		c0.326,0.707,0.717,1.375,1.168,2H15v2h28.089c1.638,1.442,3.668,2.441,5.911,2.819v12.527l-11.754,8.6l-6.665-4.761
		c-0.348-0.248-0.814-0.248-1.162,0l-6.665,4.761L11,37.346V7H40.624z M21.04,47.171L3,60.057V33.971L21.04,47.171z M30,43.229
		L54.879,61H5.121L30,43.229z M38.96,47.171L57,33.971v26.086L38.96,47.171z M51,35.883v-9.918l5.5,5.893L51,35.883z M9,35.883
		l-5.5-4.024L9,25.965V35.883z M51,23c-5.514,0-10-4.486-10-10S45.486,3,51,3s10,4.486,10,10S56.514,23,51,23z"/>
	<path class="st1" d="M51,5c-4.411,0-8,3.589-8,8s3.589,8,8,8s8-3.589,8-8S55.411,5,51,5z M51,19c-3.309,0-6-2.691-6-6s2.691-6,6-6s6,2.691,6,6
		S54.309,19,51,19z"/>
	<path class="st1" d="M52,9h-2v4c0,0.265,0.105,0.52,0.293,0.707l2,2l1.414-1.414L52,12.586V9z"/>
</g>
</svg>